<svg xmlns="http://www.w3.org/2000/svg" viewBox="0 0 1920 1080"><defs><style>.cls-1{fill:#fa1996;}.cls-2{fill:#ffcd32;}.cls-3{fill:#ffafe1;}.cls-4{fill:#870aa0;}.cls-5{fill:#fff0af;}</style></defs><g id="Lager_6" data-name="Lager 6"><rect class="cls-1" x="417.1" y="386.36" width="109.19" height="436.75"/><path class="cls-1" d="M1181.41,604.73h109.18c0-60.3,55-109.19,115.26-109.19A109.19,109.19,0,0,1,1515,604.73V823.1h115.26V604.73c0-120.61-103.84-224.44-224.44-224.44s-224.44,97-218.38,224.44"/><path class="cls-2" d="M301.85,378c-124,0-224.44,100.49-224.44,224.44S177.89,826.91,301.85,826.91,526.29,726.43,526.29,602.47,425.8,378,301.85,378Zm0,336.66A112.22,112.22,0,1,1,414.07,602.47,112.22,112.22,0,0,1,301.85,714.69Z"/><rect class="cls-3" x="623.34" y="216.51" width="121.32" height="161.52"/><rect class="cls-1" x="623.34" y="378.03" width="121.32" height="163.78"/><rect class="cls-1" x="623.34" y="541.81" width="121.32" height="163.78"/><rect class="cls-4" x="623.34" y="705.59" width="121.32" height="109.19"/><rect class="cls-1" x="1715.21" y="386.36" width="115.25" height="93.91"/><rect class="cls-2" x="1715.21" y="480.26" width="115.25" height="231.4"/><rect class="cls-4" x="1715.21" y="711.66" width="115.25" height="104.43"/><rect class="cls-5" x="841.71" y="386.36" width="109.19" height="436.75"/><path class="cls-2" d="M841.71,604.73H950.9c0-60.3,55-115.25,115.25-115.25s115.26,54.95,115.26,115.25V823.1h109.18V604.73c0-120.61-97-224.44-224.44-224.44S841.71,484.12,841.71,604.73"/><rect class="cls-5" x="1181.41" y="711.66" width="109.19" height="111.44"/><rect class="cls-3" x="1515.03" y="620.67" width="115.25" height="202.43"/><circle class="cls-1" cx="1769.8" cy="271.1" r="72.79"/><path class="cls-3" d="M413.54,605.74c-.64,36.16-20.52,69.13-43.77,86.07l77.13,81.91c47.65-39.74,79.39-100.8,79.39-171.25A224.27,224.27,0,0,0,448,432.12l-79.41,81.79C395,534.74,414.2,568.21,413.54,605.74Z"/></g></svg>