<svg xmlns="http://www.w3.org/2000/svg" viewBox="0 0 572.21 472.13"><defs><style>.cls-1{fill:#ffbe9b;}.cls-2{fill:#fff0af;}.cls-3{fill:#fa1996;}</style></defs><g id="Lager_9" data-name="Lager 9"><g id="Lager_7-2" data-name="Lager 7"><path id="Path_32" data-name="Path 32" class="cls-1" d="M207.6,0A364.87,364.87,0,0,0,0,64.38V256.91c59.5-114.71,200.73-159.47,315.44-100a234.82,234.82,0,0,1,30,18.53l76-106.68A364.74,364.74,0,0,0,207.6,0Z"/><path id="Path_33" data-name="Path 33" class="cls-2" d="M412.21,472.13H554.89a358.51,358.51,0,0,0,17.32-110.4,364.41,364.41,0,0,0-1.91-36.63L439.43,340.41q1,10.57,1,21.32A228.44,228.44,0,0,1,412.21,472.13Z"/><path id="Path_34" data-name="Path 34" class="cls-3" d="M421.52,68.78l-76,106.7a235.82,235.82,0,0,1,26.83,22.87,228.59,228.59,0,0,1,67.23,142.26l130.8-15.93A360.88,360.88,0,0,0,421.52,68.78Z"/></g></g></svg>