<svg xmlns="http://www.w3.org/2000/svg" viewBox="0 0 1920 1080"><defs><style>.cls-1{fill:#ff5f0a;}.cls-2{fill:#ffbe9b;}.cls-3{fill:#fff0af;}.cls-4{fill:#fa1996;}</style></defs><g id="Lager_9" data-name="Lager 9"><g id="Lager_7-2" data-name="Lager 7"><circle id="Ellipse_6" data-name="Ellipse 6" class="cls-1" cx="1696" cy="156.44" r="96"/><path id="Path_32" data-name="Path 32" class="cls-2" d="M207.6,607.87A364.87,364.87,0,0,0,0,672.25V864.78c59.5-114.71,200.73-159.47,315.44-100a233.7,233.7,0,0,1,30,18.53l76-106.68A364.74,364.74,0,0,0,207.6,607.87Z"/><path id="Path_33" data-name="Path 33" class="cls-3" d="M412.21,1080H554.89a358.55,358.55,0,0,0,17.32-110.4A364.41,364.41,0,0,0,570.3,933L439.43,948.28q1,10.56,1,21.32A228.46,228.46,0,0,1,412.21,1080Z"/><path id="Path_34" data-name="Path 34" class="cls-4" d="M421.52,676.65l-76,106.7a235.82,235.82,0,0,1,26.83,22.87,228.54,228.54,0,0,1,67.23,142.26l130.8-15.94A360.86,360.86,0,0,0,421.52,676.65Z"/></g></g></svg>