<svg xmlns="http://www.w3.org/2000/svg" viewBox="0 0 576 320"><defs><style>.cls-1{fill:#fff0af;}.cls-2{fill:#aae6ff;}.cls-3{fill:#2819ff;}.cls-4{fill:#a0aaff;}.cls-5{fill:#23c3ff;}</style></defs><g id="Lager_8" data-name="Lager 8"><rect id="Rectangle_45" data-name="Rectangle 45" class="cls-1" width="576" height="320"/><circle id="Ellipse_10" data-name="Ellipse 10" class="cls-2" cx="384" cy="129.96" r="64"/><path id="Path_38" data-name="Path 38" class="cls-3" d="M447.27,130a52.67,52.67,0,0,0,.38-6.28c0-31.88-28.65-57.72-64-57.72v64Z"/><path id="Path_47" data-name="Path 47" class="cls-4" d="M148.93,320h52a132.39,132.39,0,0,0,6.31-40.52,134.32,134.32,0,0,0-.7-13.45l-47.66,5.62q.36,3.89.36,7.83A84.35,84.35,0,0,1,148.93,320Z"/><path id="Path_48" data-name="Path 48" class="cls-2" d="M152.44,173.13,124.76,212.3a85.68,85.68,0,0,1,9.76,8.39A84.17,84.17,0,0,1,159,272.91l47.63-5.85A132.65,132.65,0,0,0,152.44,173.13Z"/><path id="Path_40" data-name="Path 40" class="cls-5" d="M75.6,148.66A132.16,132.16,0,0,0,0,172.3V243a84.87,84.87,0,0,1,125.79-29.89l27.68-39.15A132.11,132.11,0,0,0,75.6,148.66Z"/></g></svg>